<svg xmlns="http://www.w3.org/2000/svg" width="1000" height="1026" viewBox="0 0 1000 1026" font-family="Segoe UI, Helvetica, Arial, sans-serif">
<defs>
<marker id="ag" markerWidth="9" markerHeight="9" refX="6" refY="3" orient="auto"><path d="M0,0 L6,3 L0,6 Z" fill="#34c46a"/></marker>
<marker id="ar" markerWidth="9" markerHeight="9" refX="6" refY="3" orient="auto"><path d="M0,0 L6,3 L0,6 Z" fill="#e5484d"/></marker>
<linearGradient id="acc" x1="0" y1="0" x2="0" y2="1"><stop offset="0" stop-color="#34c46a"/><stop offset="1" stop-color="#1f9d57"/></linearGradient>
</defs>
<rect width="1000" height="1026" rx="20" fill="#0a0f18"/>
<rect x="1" y="1" width="998" height="1024" rx="19" fill="none" stroke="#223145"/>
<g transform="translate(40,40)">
<path d="M0,-14 L13,-9 V2 C13,11 7,17 0,20 C-7,17 -13,11 -13,2 V-9 Z" fill="none" stroke="#34c46a" stroke-width="2.2"/>
<path d="M-5,1 L-1,5 L6,-4" fill="none" stroke="#34c46a" stroke-width="2.4" stroke-linecap="round" stroke-linejoin="round"/>
</g>
<text x="66" y="46" fill="#e9eef5" font-size="24" font-weight="700">dep<tspan fill="#34c46a">guard</tspan></text>
<text x="960" y="34" text-anchor="end" fill="#8b9bb0" font-size="12" letter-spacing="3" font-weight="600">PACKAGE LIFECYCLE</text>
<text x="960" y="52" text-anchor="end" fill="#8b9bb0" font-size="11.5">how one install travels through every layer</text>
<line x1="40" y1="70" x2="960" y2="70" stroke="#223145"/>
<g>
<rect x="56" y="132" width="520" height="78" rx="12" fill="#111b29" stroke="#223145"/>
<rect x="56" y="132" width="6" height="78" rx="3" fill="#34c46a"/>
<text x="94" y="178.0" text-anchor="middle" fill="#34c46a" font-size="22" font-weight="700">$</text>
<text x="126" y="165" fill="#e9eef5" font-size="17.5" font-weight="700">guard install &lt;pkg&gt;   ·   guard ci</text>
<text x="126" y="188" fill="#8b9bb0" font-size="13">ephemeral proxy spun up for THIS command only</text>
</g>
<g>
<rect x="56" y="246" width="520" height="78" rx="12" fill="#111b29" stroke="#223145"/>
<rect x="56" y="246" width="6" height="78" rx="3" fill="#34c46a"/>
<circle cx="94" cy="285.0" r="17" fill="none" stroke="#34c46a" stroke-width="2"/>
<text x="94" y="291.0" text-anchor="middle" fill="#34c46a" font-size="18" font-weight="700">1</text>
<text x="126" y="279" fill="#e9eef5" font-size="17.5" font-weight="700">NAME GATE — fail closed</text>
<text x="126" y="302" fill="#8b9bb0" font-size="13">typosquat · homoglyph · dependency-confusion</text>
</g>
<line x1="576" y1="285.0" x2="622" y2="285.0" stroke="#e5484d" stroke-width="2" stroke-dasharray="5 4" marker-end="url(#ar)"/>
<rect x="624" y="257.0" width="320" height="56" rx="10" fill="#241317" stroke="#e5484d"/>
<text x="642" y="281.0" fill="#ff9a9d" font-size="13.5" font-weight="600">✗  BLOCKED before any</text>
<text x="642" y="299.0" fill="#ff9a9d" font-size="13.5" font-weight="600">metadata is served</text>
<g>
<rect x="56" y="360" width="520" height="78" rx="12" fill="#111b29" stroke="#223145"/>
<rect x="56" y="360" width="6" height="78" rx="3" fill="#34c46a"/>
<circle cx="94" cy="399.0" r="17" fill="none" stroke="#34c46a" stroke-width="2"/>
<text x="94" y="405.0" text-anchor="middle" fill="#34c46a" font-size="18" font-weight="700">2</text>
<text x="126" y="393" fill="#e9eef5" font-size="17.5" font-weight="700">COOLDOWN + OSV FILTER</text>
<text x="126" y="416" fill="#8b9bb0" font-size="13">versions &lt;14d &amp; advisory-flagged made invisible</text>
</g>
<line x1="576" y1="399.0" x2="622" y2="399.0" stroke="#e5484d" stroke-width="2" stroke-dasharray="5 4" marker-end="url(#ar)"/>
<rect x="624" y="371.0" width="320" height="56" rx="10" fill="#241317" stroke="#e5484d"/>
<text x="642" y="395.0" fill="#ff9a9d" font-size="13.5" font-weight="600">✗  risky versions never</text>
<text x="642" y="413.0" fill="#ff9a9d" font-size="13.5" font-weight="600">reach npm at all</text>
<g>
<rect x="56" y="474" width="520" height="78" rx="12" fill="#111b29" stroke="#223145"/>
<rect x="56" y="474" width="6" height="78" rx="3" fill="#34c46a"/>
<circle cx="94" cy="513.0" r="17" fill="none" stroke="#34c46a" stroke-width="2"/>
<text x="94" y="519.0" text-anchor="middle" fill="#34c46a" font-size="18" font-weight="700">3</text>
<text x="126" y="507" fill="#e9eef5" font-size="17.5" font-weight="700">npm RESOLVES &amp; INSTALLS</text>
<text x="126" y="530" fill="#8b9bb0" font-size="13">picks a safe version itself · scripts off · pinned exact</text>
</g>
<g>
<rect x="56" y="588" width="520" height="78" rx="12" fill="#111b29" stroke="#223145"/>
<rect x="56" y="588" width="6" height="78" rx="3" fill="#38bdf8"/>
<circle cx="94" cy="627.0" r="17" fill="none" stroke="#38bdf8" stroke-width="2"/>
<text x="94" y="633.0" text-anchor="middle" fill="#38bdf8" font-size="18" font-weight="700">4</text>
<text x="126" y="621" fill="#e9eef5" font-size="17.5" font-weight="700">LIFECYCLE SCRIPTS?</text>
<text x="126" y="644" fill="#8b9bb0" font-size="13">~90% of packages have none — done</text>
</g>
<line x1="576" y1="627.0" x2="622" y2="627.0" stroke="#2ea44f" stroke-width="2" stroke-dasharray="5 4" marker-end="url(#ag)"/>
<rect x="624" y="599.0" width="320" height="56" rx="10" fill="#0f2319" stroke="#2ea44f"/>
<text x="642" y="623.0" fill="#79e6a0" font-size="13.5" font-weight="600">✓  installed</text>
<text x="642" y="641.0" fill="#79e6a0" font-size="13.5" font-weight="600">(no script to run)</text>
<g>
<rect x="56" y="702" width="520" height="78" rx="12" fill="#111b29" stroke="#223145"/>
<rect x="56" y="702" width="6" height="78" rx="3" fill="#38bdf8"/>
<circle cx="94" cy="741.0" r="17" fill="none" stroke="#38bdf8" stroke-width="2"/>
<text x="94" y="747.0" text-anchor="middle" fill="#38bdf8" font-size="18" font-weight="700">5</text>
<text x="126" y="735" fill="#e9eef5" font-size="17.5" font-weight="700">SCAN → APPROVE ONCE → BOX + strace</text>
<text x="126" y="758" fill="#8b9bb0" font-size="13">no network · no secrets · every syscall watched</text>
</g>
<line x1="576" y1="741.0" x2="622" y2="741.0" stroke="#e5484d" stroke-width="2" stroke-dasharray="5 4" marker-end="url(#ar)"/>
<rect x="624" y="713.0" width="320" height="56" rx="10" fill="#241317" stroke="#e5484d"/>
<text x="642" y="737.0" fill="#ff9a9d" font-size="13.5" font-weight="600">✗  exfil attempt → output</text>
<text x="642" y="755.0" fill="#ff9a9d" font-size="13.5" font-weight="600">discarded, approval revoked</text>
<g>
<rect x="56" y="816" width="520" height="78" rx="12" fill="#111b29" stroke="#223145"/>
<rect x="56" y="816" width="6" height="78" rx="3" fill="#34c46a"/>
<circle cx="94" cy="855.0" r="17" fill="none" stroke="#34c46a" stroke-width="2"/>
<text x="94" y="861.0" text-anchor="middle" fill="#34c46a" font-size="18" font-weight="700">6</text>
<text x="126" y="849" fill="#e9eef5" font-size="17.5" font-weight="700">COMMIT / PR RE-CHECK</text>
<text x="126" y="872" fill="#8b9bb0" font-size="13">advisories · cooldown · integrity · secret-files</text>
</g>
<line x1="576" y1="855.0" x2="622" y2="855.0" stroke="#e5484d" stroke-width="2" stroke-dasharray="5 4" marker-end="url(#ar)"/>
<rect x="624" y="827.0" width="320" height="56" rx="10" fill="#241317" stroke="#e5484d"/>
<text x="642" y="851.0" fill="#ff9a9d" font-size="13.5" font-weight="600">✗  gate fails →</text>
<text x="642" y="869.0" fill="#ff9a9d" font-size="13.5" font-weight="600">CI blocks the merge</text>
<line x1="316.0" y1="210" x2="316.0" y2="244" stroke="#34c46a" stroke-width="2.4" marker-end="url(#ag)"/>
<line x1="316.0" y1="324" x2="316.0" y2="358" stroke="#34c46a" stroke-width="2.4" marker-end="url(#ag)"/>
<line x1="316.0" y1="438" x2="316.0" y2="472" stroke="#34c46a" stroke-width="2.4" marker-end="url(#ag)"/>
<line x1="316.0" y1="552" x2="316.0" y2="586" stroke="#34c46a" stroke-width="2.4" marker-end="url(#ag)"/>
<line x1="316.0" y1="666" x2="316.0" y2="700" stroke="#34c46a" stroke-width="2.4" marker-end="url(#ag)"/>
<line x1="316.0" y1="780" x2="316.0" y2="814" stroke="#34c46a" stroke-width="2.4" marker-end="url(#ag)"/>
<line x1="316.0" y1="894" x2="316.0" y2="928" stroke="#34c46a" stroke-width="2.4" marker-end="url(#ag)"/>
<rect x="56" y="930" width="888" height="50" rx="12" fill="#0f2319" stroke="#2ea44f"/>
<text x="78" y="961" fill="#79e6a0" font-size="15" font-weight="700">✓  merged &amp; trusted<tspan fill="#8b9bb0" font-weight="400">    —  defense in depth: five independent layers, none claims 100%</tspan></text>
<g font-size="12" fill="#8b9bb0">
<line x1="56" y1="1000" x2="82" y2="1000" stroke="#34c46a" stroke-width="2.4" marker-end="url(#ag)"/>
<text x="90" y="1004">proceeds / safe</text>
<line x1="256" y1="1000" x2="282" y2="1000" stroke="#e5484d" stroke-width="2" stroke-dasharray="5 4" marker-end="url(#ar)"/>
<text x="290" y="1004">blocked / contained</text>
</g>
</svg>